<?xml version="1.0" encoding="utf-8"?>
<!-- Generator: Adobe Illustrator 22.1.0, SVG Export Plug-In . SVG Version: 6.00 Build 0)  -->
<svg version="1.1" id="Layer_2" xmlns="http://www.w3.org/2000/svg" xmlns:xlink="http://www.w3.org/1999/xlink" x="0px" y="0px"
	 viewBox="0 0 214 156" style="enable-background:new 0 0 214 156;" xml:space="preserve">
<style type="text/css">
	.st0{fill:#284C97;}
	.st1{fill:#375192;}
	.st2{fill:#CF2329;}
	.st3{fill:#FFFFFF;}
	.st4{fill:#1E4B99;}
</style>
<g>
	<path class="st0" d="M20.5,84H32l19.1,51H39.5l-3.9-11.4H16.5l-4,11.4H1.1L20.5,84z M19.4,115.3h13.2l-6.4-18.7h-0.1L19.4,115.3z"
		/>
	<path class="st0" d="M60.7,119c0.3,6.4,3.4,9.4,9.1,9.4c4.1,0,7.4-2.5,8-4.8h8.9c-2.9,8.7-8.9,12.4-17.3,12.4
		c-11.7,0-18.9-8-18.9-19.4c0-11.1,7.7-19.5,18.9-19.5c12.6,0,18.7,10.6,18,21.9H60.7z M77.2,112.6c-0.9-5.1-3.2-7.9-8.1-7.9
		c-6.4,0-8.3,5-8.4,7.9H77.2z"/>
	<path class="st0" d="M92,98.1h9.7v6.9h0.1c1.9-4.6,6.9-7.9,11.8-7.9c0.7,0,1.6,0.1,2.2,0.4v9.4c-0.9-0.2-2.4-0.4-3.7-0.4
		c-7.4,0-10,5.4-10,11.9v16.6H92V98.1z"/>
	<path class="st0" d="M128.9,92.4h-10.2V84h10.2V92.4z M118.7,98.1h10.2v36.9h-10.2V98.1z"/>
	<path class="st0" d="M144,119c0.3,6.4,3.4,9.4,9.1,9.4c4.1,0,7.4-2.5,8-4.8h8.9c-2.9,8.7-8.9,12.4-17.3,12.4
		c-11.7,0-18.9-8-18.9-19.4c0-11.1,7.7-19.5,18.9-19.5c12.6,0,18.7,10.6,18,21.9H144z M160.5,112.6c-0.9-5.1-3.2-7.9-8.1-7.9
		c-6.4,0-8.3,5-8.4,7.9H160.5z"/>
	<path class="st0" d="M182.9,123c0.1,4.4,3.8,6.2,7.8,6.2c2.9,0,6.7-1.1,6.7-4.7c0-3.1-4.2-4.1-11.5-5.7c-5.9-1.3-11.7-3.4-11.7-9.9
		c0-9.4,8.2-11.9,16.1-11.9c8.1,0,15.5,2.7,16.3,11.8h-9.7c-0.3-3.9-3.3-5-6.9-5c-2.3,0-5.7,0.4-5.7,3.4c0,3.6,5.7,4.1,11.5,5.5
		c5.9,1.4,11.7,3.5,11.7,10.4c0,9.7-8.4,12.9-16.9,12.9c-8.6,0-17-3.2-17.4-13H182.9z"/>
</g>
<path class="st1" d="M209.5,88.6c0.7,0,1.4,0.2,2.1,0.6c0.7,0.4,1.2,0.9,1.6,1.6c0.4,0.7,0.6,1.4,0.6,2.1c0,0.7-0.2,1.4-0.6,2.1
	c-0.4,0.7-0.9,1.2-1.6,1.6c-0.7,0.4-1.4,0.6-2.1,0.6c-0.7,0-1.4-0.2-2.1-0.6c-0.7-0.4-1.2-0.9-1.6-1.6c-0.4-0.7-0.6-1.4-0.6-2.1
	c0-0.7,0.2-1.5,0.6-2.1c0.4-0.7,0.9-1.2,1.6-1.6C208.1,88.7,208.8,88.6,209.5,88.6z M209.5,89.3c-0.6,0-1.2,0.2-1.7,0.5
	c-0.6,0.3-1,0.7-1.3,1.3c-0.3,0.6-0.5,1.2-0.5,1.8c0,0.6,0.2,1.2,0.5,1.8c0.3,0.6,0.8,1,1.3,1.3c0.6,0.3,1.2,0.5,1.8,0.5
	c0.6,0,1.2-0.2,1.8-0.5c0.6-0.3,1-0.8,1.3-1.3c0.3-0.6,0.5-1.2,0.5-1.8c0-0.6-0.2-1.2-0.5-1.8c-0.3-0.6-0.8-1-1.3-1.3
	C210.6,89.4,210.1,89.3,209.5,89.3z M207.6,95.2v-4.6h1.6c0.5,0,0.9,0,1.2,0.1c0.2,0.1,0.4,0.2,0.6,0.4c0.1,0.2,0.2,0.4,0.2,0.7
	c0,0.3-0.1,0.6-0.4,0.9s-0.6,0.4-1,0.4c0.2,0.1,0.3,0.1,0.4,0.2c0.2,0.2,0.4,0.5,0.7,0.9l0.6,0.9h-0.9l-0.4-0.7
	c-0.3-0.6-0.6-0.9-0.8-1.1c-0.1-0.1-0.3-0.2-0.6-0.2h-0.4v1.9H207.6z M208.3,92.6h0.9c0.4,0,0.7-0.1,0.9-0.2
	c0.2-0.1,0.2-0.3,0.2-0.5c0-0.1,0-0.3-0.1-0.4c-0.1-0.1-0.2-0.2-0.3-0.2c-0.1-0.1-0.4-0.1-0.7-0.1h-0.8V92.6z"/>
<g>
	<path class="st2" d="M7.8,142.2c-0.1,0.1-0.1,0.2-0.2,0.2c-0.1,0-0.1,0.1-0.2,0.1c-0.1,0-0.2,0-0.4-0.2c-0.1-0.1-0.3-0.2-0.5-0.3
		c-0.2-0.1-0.4-0.2-0.7-0.3c-0.3-0.1-0.6-0.2-1-0.2c-0.4,0-0.7,0.1-1,0.2c-0.3,0.1-0.5,0.2-0.7,0.4c-0.2,0.2-0.3,0.4-0.4,0.6
		c-0.1,0.2-0.2,0.5-0.2,0.8c0,0.4,0.1,0.6,0.3,0.9c0.2,0.2,0.4,0.4,0.7,0.6c0.3,0.2,0.6,0.3,1,0.4c0.4,0.1,0.7,0.2,1.1,0.4
		c0.4,0.1,0.8,0.3,1.1,0.4c0.4,0.2,0.7,0.4,1,0.6c0.3,0.2,0.5,0.6,0.7,0.9c0.2,0.4,0.3,0.8,0.3,1.3c0,0.6-0.1,1.1-0.3,1.6
		c-0.2,0.5-0.5,0.9-0.8,1.3c-0.4,0.4-0.8,0.6-1.3,0.8c-0.5,0.2-1.1,0.3-1.8,0.3c-0.8,0-1.6-0.1-2.2-0.4c-0.7-0.3-1.2-0.7-1.7-1.2
		l0.5-0.8c0-0.1,0.1-0.1,0.2-0.2c0.1,0,0.1-0.1,0.2-0.1c0.1,0,0.2,0,0.3,0.1c0.1,0.1,0.2,0.1,0.3,0.2c0.1,0.1,0.3,0.2,0.4,0.3
		c0.2,0.1,0.3,0.2,0.5,0.3c0.2,0.1,0.4,0.2,0.7,0.2c0.3,0.1,0.6,0.1,0.9,0.1c0.4,0,0.8-0.1,1.1-0.2c0.3-0.1,0.6-0.3,0.8-0.5
		c0.2-0.2,0.4-0.4,0.5-0.7c0.1-0.3,0.2-0.6,0.2-0.9c0-0.4-0.1-0.7-0.3-0.9c-0.2-0.2-0.4-0.4-0.7-0.6c-0.3-0.2-0.6-0.3-1-0.4
		c-0.4-0.1-0.7-0.2-1.1-0.4c-0.4-0.1-0.7-0.3-1.1-0.4c-0.4-0.2-0.7-0.4-1-0.6c-0.3-0.3-0.5-0.6-0.7-1c-0.2-0.4-0.3-0.8-0.3-1.4
		c0-0.4,0.1-0.9,0.3-1.3c0.2-0.4,0.4-0.8,0.8-1.1c0.3-0.3,0.7-0.6,1.2-0.8c0.5-0.2,1-0.3,1.7-0.3c0.7,0,1.4,0.1,1.9,0.3
		c0.6,0.2,1.1,0.5,1.5,1L7.8,142.2z"/>
	<path class="st2" d="M12.7,153.1c-0.7,0-1.3-0.2-1.6-0.6c-0.4-0.4-0.6-1-0.6-1.7v-5.5H9.4c-0.1,0-0.2,0-0.2-0.1
		c-0.1-0.1-0.1-0.1-0.1-0.3v-0.6l1.5-0.2l0.4-2.8c0-0.1,0.1-0.2,0.1-0.2c0.1-0.1,0.1-0.1,0.2-0.1H12v3.1h2.6v1.1H12v5.4
		c0,0.4,0.1,0.7,0.3,0.8c0.2,0.2,0.4,0.3,0.7,0.3c0.2,0,0.3,0,0.4-0.1c0.1,0,0.2-0.1,0.3-0.1c0.1-0.1,0.2-0.1,0.2-0.1
		c0.1,0,0.1-0.1,0.2-0.1c0.1,0,0.2,0.1,0.2,0.2l0.5,0.8c-0.3,0.3-0.6,0.5-1,0.6C13.5,153,13.1,153.1,12.7,153.1z"/>
	<path class="st2" d="M17.4,144v5.7c0,0.7,0.2,1.2,0.5,1.6c0.3,0.4,0.8,0.6,1.4,0.6c0.5,0,0.9-0.1,1.3-0.3c0.4-0.2,0.8-0.5,1.1-0.9
		V144h1.6v9h-0.9c-0.2,0-0.4-0.1-0.4-0.3l-0.1-1c-0.4,0.4-0.8,0.8-1.3,1c-0.5,0.3-1,0.4-1.7,0.4c-0.5,0-0.9-0.1-1.3-0.2
		c-0.4-0.2-0.7-0.4-0.9-0.7c-0.3-0.3-0.4-0.7-0.6-1.1c-0.1-0.4-0.2-0.9-0.2-1.4V144H17.4z"/>
	<path class="st2" d="M32,152.9c-0.2,0-0.4-0.1-0.4-0.3l-0.1-1.1c-0.4,0.5-0.8,0.8-1.3,1.1c-0.5,0.3-1.1,0.4-1.7,0.4
		c-0.5,0-1-0.1-1.4-0.3c-0.4-0.2-0.8-0.5-1.1-0.9c-0.3-0.4-0.5-0.9-0.7-1.4c-0.2-0.6-0.2-1.2-0.2-2c0-0.7,0.1-1.3,0.3-1.8
		c0.2-0.6,0.4-1.1,0.8-1.5c0.3-0.4,0.7-0.7,1.2-1c0.5-0.2,1-0.4,1.6-0.4c0.5,0,1,0.1,1.4,0.3c0.4,0.2,0.7,0.4,1,0.8v-5h1.6v13H32z
		 M28.9,151.8c0.5,0,1-0.1,1.4-0.4c0.4-0.2,0.7-0.6,1.1-1v-4.3c-0.3-0.4-0.6-0.7-1-0.8c-0.3-0.2-0.7-0.2-1.2-0.2
		c-0.8,0-1.5,0.3-1.9,0.9c-0.4,0.6-0.7,1.4-0.7,2.5c0,0.6,0.1,1.1,0.2,1.5c0.1,0.4,0.2,0.8,0.4,1c0.2,0.3,0.4,0.5,0.7,0.6
		C28.2,151.7,28.6,151.8,28.9,151.8z"/>
	<path class="st2" d="M38.8,143.8c0.5,0,1,0.1,1.5,0.3c0.5,0.2,0.9,0.4,1.2,0.8c0.3,0.3,0.6,0.8,0.8,1.3c0.2,0.5,0.3,1.1,0.3,1.7
		c0,0.2,0,0.4-0.1,0.5c-0.1,0.1-0.2,0.1-0.3,0.1h-6c0,0.6,0.1,1.1,0.2,1.5c0.1,0.4,0.3,0.8,0.6,1c0.2,0.3,0.5,0.5,0.9,0.6
		c0.3,0.1,0.7,0.2,1.2,0.2c0.4,0,0.7,0,1-0.1c0.3-0.1,0.5-0.2,0.7-0.3c0.2-0.1,0.4-0.2,0.5-0.3c0.1-0.1,0.3-0.1,0.4-0.1
		c0.1,0,0.2,0.1,0.3,0.2l0.4,0.6c-0.2,0.2-0.4,0.4-0.7,0.6c-0.3,0.2-0.6,0.3-0.9,0.4c-0.3,0.1-0.6,0.2-1,0.3c-0.3,0.1-0.7,0.1-1,0.1
		c-0.6,0-1.2-0.1-1.7-0.3c-0.5-0.2-1-0.5-1.4-0.9c-0.4-0.4-0.7-0.9-0.9-1.5c-0.2-0.6-0.3-1.3-0.3-2.1c0-0.6,0.1-1.2,0.3-1.7
		c0.2-0.5,0.5-1,0.8-1.4c0.4-0.4,0.8-0.7,1.3-0.9C37.5,143.9,38.1,143.8,38.8,143.8z M38.8,145c-0.8,0-1.4,0.2-1.8,0.7
		c-0.4,0.4-0.7,1-0.8,1.8h4.9c0-0.4-0.1-0.7-0.2-1c-0.1-0.3-0.3-0.6-0.5-0.8c-0.2-0.2-0.4-0.4-0.7-0.5C39.5,145,39.2,145,38.8,145z"
		/>
	<path class="st2" d="M44.1,152.9v-9h0.9c0.2,0,0.4,0.1,0.4,0.3l0.1,1c0.4-0.4,0.8-0.8,1.3-1c0.5-0.3,1-0.4,1.7-0.4
		c0.5,0,0.9,0.1,1.3,0.2c0.4,0.2,0.7,0.4,0.9,0.7c0.3,0.3,0.4,0.7,0.6,1.1c0.1,0.4,0.2,0.9,0.2,1.4v5.7H50v-5.7
		c0-0.7-0.2-1.2-0.5-1.6c-0.3-0.4-0.8-0.6-1.4-0.6c-0.5,0-0.9,0.1-1.3,0.3c-0.4,0.2-0.8,0.5-1.1,0.9v6.6H44.1z"/>
	<path class="st2" d="M56.2,153.1c-0.7,0-1.3-0.2-1.6-0.6c-0.4-0.4-0.6-1-0.6-1.7v-5.5H53c-0.1,0-0.2,0-0.2-0.1
		c-0.1-0.1-0.1-0.1-0.1-0.3v-0.6l1.5-0.2l0.4-2.8c0-0.1,0.1-0.2,0.1-0.2c0.1-0.1,0.1-0.1,0.2-0.1h0.8v3.1h2.6v1.1h-2.6v5.4
		c0,0.4,0.1,0.7,0.3,0.8c0.2,0.2,0.4,0.3,0.7,0.3c0.2,0,0.3,0,0.4-0.1s0.2-0.1,0.3-0.1c0.1-0.1,0.2-0.1,0.2-0.1
		c0.1,0,0.1-0.1,0.2-0.1c0.1,0,0.2,0.1,0.2,0.2l0.5,0.8c-0.3,0.3-0.6,0.5-1,0.6C57,153,56.6,153.1,56.2,153.1z"/>
	<path class="st2" d="M66.1,152.9h-1.7v-12.7h1.7V152.9z"/>
	<path class="st2" d="M68.6,152.9v-9h0.9c0.2,0,0.4,0.1,0.4,0.3l0.1,1c0.4-0.4,0.8-0.8,1.3-1c0.5-0.3,1-0.4,1.7-0.4
		c0.5,0,0.9,0.1,1.3,0.2c0.4,0.2,0.7,0.4,0.9,0.7c0.3,0.3,0.4,0.7,0.6,1.1c0.1,0.4,0.2,0.9,0.2,1.4v5.7h-1.6v-5.7
		c0-0.7-0.2-1.2-0.5-1.6c-0.3-0.4-0.8-0.6-1.4-0.6c-0.5,0-0.9,0.1-1.3,0.3c-0.4,0.2-0.8,0.5-1.1,0.9v6.6H68.6z"/>
	<path class="st2" d="M78.5,152.9v-7.6l-1-0.1c-0.1,0-0.2-0.1-0.3-0.1c-0.1-0.1-0.1-0.2-0.1-0.3v-0.6h1.4v-0.9c0-0.5,0.1-1,0.2-1.4
		c0.1-0.4,0.4-0.7,0.6-1c0.3-0.3,0.6-0.5,1-0.6c0.4-0.1,0.8-0.2,1.3-0.2c0.4,0,0.8,0.1,1.1,0.2l0,0.8c0,0.1-0.1,0.2-0.2,0.2
		c-0.1,0-0.3,0-0.6,0c-0.3,0-0.5,0-0.7,0.1c-0.2,0.1-0.4,0.2-0.6,0.3c-0.2,0.2-0.3,0.4-0.4,0.6c-0.1,0.3-0.1,0.6-0.1,1v0.8h2.6v1.1
		h-2.5v7.6H78.5z"/>
	<path class="st2" d="M87.4,143.8c0.7,0,1.2,0.1,1.8,0.3c0.5,0.2,1,0.5,1.3,0.9c0.4,0.4,0.7,0.9,0.9,1.5s0.3,1.2,0.3,1.9
		c0,0.7-0.1,1.3-0.3,1.9s-0.5,1-0.9,1.4c-0.4,0.4-0.8,0.7-1.3,0.9c-0.5,0.2-1.1,0.3-1.8,0.3c-0.7,0-1.3-0.1-1.8-0.3
		c-0.5-0.2-1-0.5-1.4-0.9c-0.4-0.4-0.7-0.9-0.9-1.4c-0.2-0.6-0.3-1.2-0.3-1.9c0-0.7,0.1-1.3,0.3-1.9c0.2-0.6,0.5-1.1,0.9-1.5
		c0.4-0.4,0.8-0.7,1.4-0.9C86.2,143.9,86.8,143.8,87.4,143.8z M87.4,151.8c0.9,0,1.5-0.3,2-0.9c0.4-0.6,0.7-1.4,0.7-2.5
		c0-1.1-0.2-1.9-0.7-2.5s-1.1-0.9-2-0.9c-0.4,0-0.8,0.1-1.2,0.2c-0.3,0.2-0.6,0.4-0.8,0.7c-0.2,0.3-0.4,0.6-0.5,1.1
		c-0.1,0.4-0.2,0.9-0.2,1.4c0,1.1,0.2,1.9,0.7,2.5C85.9,151.5,86.5,151.8,87.4,151.8z"/>
	<path class="st2" d="M93.3,152.9v-9h0.9c0.2,0,0.3,0,0.4,0.1c0.1,0.1,0.1,0.2,0.1,0.3l0.1,1.4c0.3-0.6,0.6-1.1,1-1.4
		s0.9-0.5,1.5-0.5c0.2,0,0.4,0,0.5,0.1c0.2,0,0.3,0.1,0.5,0.2l-0.1,1.2c0,0.1-0.1,0.2-0.3,0.2c-0.1,0-0.2,0-0.4-0.1
		c-0.2,0-0.3-0.1-0.5-0.1c-0.3,0-0.5,0-0.8,0.1c-0.2,0.1-0.4,0.2-0.6,0.4c-0.2,0.2-0.3,0.4-0.5,0.6c-0.1,0.2-0.3,0.5-0.4,0.8v5.7
		H93.3z"/>
	<path class="st2" d="M99.5,152.9v-9h0.9c0.2,0,0.4,0.1,0.4,0.3l0.1,0.9c0.3-0.4,0.7-0.7,1.1-1c0.4-0.3,0.9-0.4,1.4-0.4
		c0.6,0,1.1,0.2,1.5,0.5c0.4,0.3,0.6,0.8,0.8,1.4c0.1-0.3,0.3-0.6,0.5-0.8c0.2-0.2,0.4-0.4,0.7-0.6s0.5-0.3,0.8-0.3
		c0.3-0.1,0.6-0.1,0.9-0.1c0.5,0,0.9,0.1,1.3,0.2c0.4,0.2,0.7,0.4,0.9,0.7c0.3,0.3,0.5,0.6,0.6,1.1c0.1,0.4,0.2,0.9,0.2,1.4v5.7
		h-1.6v-5.7c0-0.7-0.2-1.2-0.5-1.6c-0.3-0.4-0.7-0.5-1.3-0.5c-0.3,0-0.5,0-0.7,0.1c-0.2,0.1-0.4,0.2-0.6,0.4
		c-0.2,0.2-0.3,0.4-0.4,0.7c-0.1,0.3-0.2,0.6-0.2,0.9v5.7h-1.6v-5.7c0-0.7-0.1-1.3-0.4-1.6c-0.3-0.4-0.7-0.5-1.3-0.5
		c-0.4,0-0.7,0.1-1.1,0.3c-0.3,0.2-0.6,0.5-0.9,0.9v6.7H99.5z"/>
	<path class="st2" d="M119.4,152.9c-0.2,0-0.3,0-0.4-0.1c-0.1,0-0.1-0.1-0.2-0.3l-0.2-0.8c-0.2,0.2-0.5,0.4-0.7,0.6
		c-0.2,0.2-0.5,0.3-0.7,0.4c-0.2,0.1-0.5,0.2-0.8,0.3c-0.3,0.1-0.6,0.1-0.9,0.1c-0.3,0-0.7,0-1-0.1c-0.3-0.1-0.6-0.2-0.8-0.4
		c-0.2-0.2-0.4-0.4-0.5-0.7c-0.1-0.3-0.2-0.6-0.2-1.1c0-0.4,0.1-0.7,0.3-1c0.2-0.3,0.5-0.6,0.9-0.9c0.4-0.3,1-0.5,1.7-0.6
		c0.7-0.2,1.6-0.3,2.6-0.3v-0.7c0-0.7-0.2-1.2-0.5-1.6c-0.3-0.4-0.7-0.5-1.3-0.5c-0.4,0-0.7,0-1,0.1c-0.3,0.1-0.5,0.2-0.7,0.3
		c-0.2,0.1-0.4,0.2-0.5,0.3c-0.1,0.1-0.3,0.1-0.4,0.1c-0.1,0-0.2,0-0.3-0.1c-0.1-0.1-0.1-0.1-0.2-0.2l-0.3-0.5
		c0.5-0.5,1-0.8,1.6-1.1c0.6-0.2,1.2-0.4,1.9-0.4c0.5,0,0.9,0.1,1.3,0.2c0.4,0.2,0.7,0.4,1,0.7c0.3,0.3,0.5,0.7,0.6,1.1
		s0.2,0.9,0.2,1.4v5.7H119.4z M116,152c0.3,0,0.5,0,0.8-0.1c0.2-0.1,0.4-0.1,0.7-0.2s0.4-0.2,0.6-0.4c0.2-0.2,0.4-0.3,0.5-0.5v-1.9
		c-0.7,0-1.3,0.1-1.9,0.2c-0.5,0.1-0.9,0.2-1.2,0.4c-0.3,0.1-0.6,0.3-0.7,0.5c-0.1,0.2-0.2,0.4-0.2,0.7c0,0.2,0,0.4,0.1,0.6
		c0.1,0.2,0.2,0.3,0.3,0.4c0.1,0.1,0.3,0.2,0.5,0.2C115.6,151.9,115.8,152,116,152z"/>
	<path class="st2" d="M124.8,153.1c-0.7,0-1.3-0.2-1.6-0.6c-0.4-0.4-0.6-1-0.6-1.7v-5.5h-1.1c-0.1,0-0.2,0-0.2-0.1
		c-0.1-0.1-0.1-0.1-0.1-0.3v-0.6l1.5-0.2l0.4-2.8c0-0.1,0.1-0.2,0.1-0.2c0.1-0.1,0.1-0.1,0.2-0.1h0.8v3.1h6.2v8.8h-1.6v-7.6h-4.6
		v5.4c0,0.4,0.1,0.7,0.3,0.8c0.2,0.2,0.4,0.3,0.7,0.3c0.2,0,0.3,0,0.4-0.1s0.2-0.1,0.3-0.1c0.1-0.1,0.2-0.1,0.2-0.1
		c0.1,0,0.1-0.1,0.2-0.1c0.1,0,0.2,0.1,0.2,0.2l0.5,0.8c-0.3,0.3-0.6,0.5-1,0.6C125.6,153,125.2,153.1,124.8,153.1z M130.8,141.1
		c0,0.2,0,0.3-0.1,0.4c-0.1,0.1-0.1,0.2-0.2,0.3c-0.1,0.1-0.2,0.2-0.4,0.2s-0.3,0.1-0.4,0.1c-0.2,0-0.3,0-0.4-0.1s-0.2-0.1-0.3-0.2
		c-0.1-0.1-0.2-0.2-0.2-0.3c-0.1-0.1-0.1-0.3-0.1-0.4s0-0.3,0.1-0.4c0.1-0.1,0.1-0.3,0.2-0.4c0.1-0.1,0.2-0.2,0.3-0.2
		c0.1-0.1,0.3-0.1,0.4-0.1c0.2,0,0.3,0,0.4,0.1c0.1,0.1,0.3,0.1,0.4,0.2s0.2,0.2,0.2,0.4C130.7,140.8,130.8,140.9,130.8,141.1z"/>
	<path class="st2" d="M136.4,143.8c0.7,0,1.2,0.1,1.8,0.3c0.5,0.2,1,0.5,1.3,0.9c0.4,0.4,0.7,0.9,0.9,1.5s0.3,1.2,0.3,1.9
		c0,0.7-0.1,1.3-0.3,1.9s-0.5,1-0.9,1.4c-0.4,0.4-0.8,0.7-1.3,0.9c-0.5,0.2-1.1,0.3-1.8,0.3c-0.7,0-1.3-0.1-1.8-0.3
		c-0.5-0.2-1-0.5-1.4-0.9c-0.4-0.4-0.7-0.9-0.9-1.4c-0.2-0.6-0.3-1.2-0.3-1.9c0-0.7,0.1-1.3,0.3-1.9c0.2-0.6,0.5-1.1,0.9-1.5
		c0.4-0.4,0.8-0.7,1.4-0.9C135.1,143.9,135.7,143.8,136.4,143.8z M136.4,151.8c0.9,0,1.5-0.3,2-0.9c0.4-0.6,0.7-1.4,0.7-2.5
		c0-1.1-0.2-1.9-0.7-2.5c-0.4-0.6-1.1-0.9-2-0.9c-0.4,0-0.8,0.1-1.2,0.2c-0.3,0.2-0.6,0.4-0.8,0.7c-0.2,0.3-0.4,0.6-0.5,1.1
		c-0.1,0.4-0.2,0.9-0.2,1.4c0,1.1,0.2,1.9,0.7,2.5C134.8,151.5,135.5,151.8,136.4,151.8z"/>
	<path class="st2" d="M142.3,152.9v-9h0.9c0.2,0,0.4,0.1,0.4,0.3l0.1,1c0.4-0.4,0.8-0.8,1.3-1c0.5-0.3,1-0.4,1.7-0.4
		c0.5,0,0.9,0.1,1.3,0.2c0.4,0.2,0.7,0.4,0.9,0.7c0.3,0.3,0.4,0.7,0.6,1.1c0.1,0.4,0.2,0.9,0.2,1.4v5.7h-1.6v-5.7
		c0-0.7-0.2-1.2-0.5-1.6c-0.3-0.4-0.8-0.6-1.4-0.6c-0.5,0-0.9,0.1-1.3,0.3c-0.4,0.2-0.8,0.5-1.1,0.9v6.6H142.3z"/>
	<path class="st2" d="M163.2,142.2c-0.1,0.1-0.1,0.2-0.2,0.2c-0.1,0-0.1,0.1-0.2,0.1c-0.1,0-0.2,0-0.4-0.2c-0.1-0.1-0.3-0.2-0.5-0.3
		c-0.2-0.1-0.4-0.2-0.7-0.3c-0.3-0.1-0.6-0.2-1-0.2c-0.4,0-0.7,0.1-1,0.2c-0.3,0.1-0.5,0.2-0.7,0.4s-0.3,0.4-0.4,0.6
		c-0.1,0.2-0.2,0.5-0.2,0.8c0,0.4,0.1,0.6,0.3,0.9c0.2,0.2,0.4,0.4,0.7,0.6c0.3,0.2,0.6,0.3,1,0.4c0.4,0.1,0.7,0.2,1.1,0.4
		c0.4,0.1,0.8,0.3,1.1,0.4c0.4,0.2,0.7,0.4,1,0.6c0.3,0.2,0.5,0.6,0.7,0.9c0.2,0.4,0.3,0.8,0.3,1.3c0,0.6-0.1,1.1-0.3,1.6
		c-0.2,0.5-0.5,0.9-0.8,1.3c-0.4,0.4-0.8,0.6-1.3,0.8c-0.5,0.2-1.1,0.3-1.8,0.3c-0.8,0-1.6-0.1-2.2-0.4c-0.7-0.3-1.2-0.7-1.7-1.2
		l0.5-0.8c0-0.1,0.1-0.1,0.2-0.2c0.1,0,0.1-0.1,0.2-0.1c0.1,0,0.2,0,0.3,0.1c0.1,0.1,0.2,0.1,0.3,0.2c0.1,0.1,0.3,0.2,0.4,0.3
		c0.2,0.1,0.3,0.2,0.5,0.3c0.2,0.1,0.4,0.2,0.7,0.2c0.3,0.1,0.6,0.1,0.9,0.1c0.4,0,0.8-0.1,1.1-0.2c0.3-0.1,0.6-0.3,0.8-0.5
		c0.2-0.2,0.4-0.4,0.5-0.7c0.1-0.3,0.2-0.6,0.2-0.9c0-0.4-0.1-0.7-0.3-0.9c-0.2-0.2-0.4-0.4-0.7-0.6c-0.3-0.2-0.6-0.3-1-0.4
		c-0.4-0.1-0.7-0.2-1.1-0.4c-0.4-0.1-0.7-0.3-1.1-0.4c-0.4-0.2-0.7-0.4-1-0.6c-0.3-0.3-0.5-0.6-0.7-1c-0.2-0.4-0.3-0.8-0.3-1.4
		c0-0.4,0.1-0.9,0.3-1.3c0.2-0.4,0.4-0.8,0.8-1.1c0.3-0.3,0.7-0.6,1.2-0.8c0.5-0.2,1-0.3,1.7-0.3c0.7,0,1.4,0.1,1.9,0.3
		c0.6,0.2,1.1,0.5,1.5,1L163.2,142.2z"/>
	<path class="st2" d="M167.8,155.6c-0.1,0.1-0.1,0.2-0.2,0.3c-0.1,0.1-0.2,0.1-0.4,0.1h-1.2l1.6-3.6L164,144h1.4
		c0.1,0,0.2,0,0.3,0.1c0.1,0.1,0.1,0.1,0.2,0.2l2.4,5.6c0,0.1,0.1,0.3,0.1,0.4c0,0.1,0.1,0.3,0.1,0.4c0.1-0.3,0.2-0.5,0.3-0.8
		l2.3-5.6c0-0.1,0.1-0.2,0.2-0.2c0.1-0.1,0.2-0.1,0.3-0.1h1.2L167.8,155.6z"/>
	<path class="st2" d="M179,145.4c-0.1,0.1-0.2,0.2-0.3,0.2c-0.1,0-0.2,0-0.3-0.1c-0.1-0.1-0.2-0.1-0.4-0.2c-0.2-0.1-0.4-0.2-0.6-0.2
		c-0.2-0.1-0.5-0.1-0.8-0.1c-0.3,0-0.5,0-0.7,0.1c-0.2,0.1-0.4,0.2-0.5,0.3c-0.2,0.1-0.3,0.3-0.3,0.4c-0.1,0.2-0.1,0.3-0.1,0.5
		c0,0.2,0.1,0.4,0.2,0.6c0.1,0.2,0.3,0.3,0.5,0.4c0.2,0.1,0.5,0.2,0.7,0.3c0.3,0.1,0.6,0.2,0.9,0.3c0.3,0.1,0.6,0.2,0.9,0.3
		c0.3,0.1,0.5,0.3,0.7,0.4c0.2,0.2,0.4,0.4,0.5,0.6c0.1,0.3,0.2,0.6,0.2,0.9c0,0.4-0.1,0.8-0.2,1.1c-0.1,0.4-0.4,0.7-0.7,0.9
		c-0.3,0.3-0.6,0.5-1.1,0.6c-0.4,0.1-0.9,0.2-1.5,0.2c-0.6,0-1.2-0.1-1.7-0.3c-0.5-0.2-0.9-0.5-1.3-0.8l0.4-0.6
		c0-0.1,0.1-0.1,0.2-0.2c0.1,0,0.1-0.1,0.2-0.1c0.1,0,0.2,0,0.3,0.1c0.1,0.1,0.3,0.2,0.4,0.3c0.2,0.1,0.4,0.2,0.6,0.3
		c0.2,0.1,0.5,0.1,0.9,0.1c0.3,0,0.6,0,0.8-0.1c0.2-0.1,0.4-0.2,0.6-0.3s0.3-0.3,0.3-0.5c0.1-0.2,0.1-0.4,0.1-0.6
		c0-0.2-0.1-0.5-0.2-0.6s-0.3-0.3-0.5-0.4c-0.2-0.1-0.5-0.2-0.7-0.3c-0.3-0.1-0.6-0.2-0.9-0.3c-0.3-0.1-0.6-0.2-0.9-0.3
		c-0.3-0.1-0.5-0.3-0.7-0.5c-0.2-0.2-0.4-0.4-0.5-0.7s-0.2-0.6-0.2-1c0-0.3,0.1-0.7,0.2-1c0.1-0.3,0.3-0.6,0.6-0.8
		c0.3-0.2,0.6-0.4,1-0.6c0.4-0.1,0.8-0.2,1.4-0.2c0.6,0,1.1,0.1,1.6,0.3s0.9,0.4,1.2,0.8L179,145.4z"/>
	<path class="st2" d="M184.1,153.1c-0.7,0-1.3-0.2-1.6-0.6c-0.4-0.4-0.6-1-0.6-1.7v-5.5h-1.1c-0.1,0-0.2,0-0.2-0.1
		c-0.1-0.1-0.1-0.1-0.1-0.3v-0.6l1.5-0.2l0.4-2.8c0-0.1,0.1-0.2,0.1-0.2c0.1-0.1,0.1-0.1,0.2-0.1h0.8v3.1h2.6v1.1h-2.6v5.4
		c0,0.4,0.1,0.7,0.3,0.8c0.2,0.2,0.4,0.3,0.7,0.3c0.2,0,0.3,0,0.4-0.1c0.1,0,0.2-0.1,0.3-0.1c0.1-0.1,0.2-0.1,0.2-0.1
		c0.1,0,0.1-0.1,0.2-0.1c0.1,0,0.2,0.1,0.2,0.2l0.5,0.8c-0.3,0.3-0.6,0.5-1,0.6C184.9,153,184.5,153.1,184.1,153.1z"/>
	<path class="st2" d="M190.8,143.8c0.5,0,1,0.1,1.5,0.3c0.5,0.2,0.9,0.4,1.2,0.8c0.3,0.3,0.6,0.8,0.8,1.3c0.2,0.5,0.3,1.1,0.3,1.7
		c0,0.2,0,0.4-0.1,0.5c-0.1,0.1-0.2,0.1-0.3,0.1h-6c0,0.6,0.1,1.1,0.2,1.5c0.1,0.4,0.3,0.8,0.6,1c0.2,0.3,0.5,0.5,0.9,0.6
		c0.3,0.1,0.7,0.2,1.2,0.2c0.4,0,0.7,0,1-0.1c0.3-0.1,0.5-0.2,0.7-0.3c0.2-0.1,0.4-0.2,0.5-0.3c0.1-0.1,0.3-0.1,0.4-0.1
		c0.1,0,0.2,0.1,0.3,0.2l0.4,0.6c-0.2,0.2-0.4,0.4-0.7,0.6c-0.3,0.2-0.6,0.3-0.9,0.4c-0.3,0.1-0.6,0.2-1,0.3c-0.3,0.1-0.7,0.1-1,0.1
		c-0.6,0-1.2-0.1-1.7-0.3c-0.5-0.2-1-0.5-1.4-0.9c-0.4-0.4-0.7-0.9-0.9-1.5c-0.2-0.6-0.3-1.3-0.3-2.1c0-0.6,0.1-1.2,0.3-1.7
		c0.2-0.5,0.5-1,0.8-1.4c0.4-0.4,0.8-0.7,1.3-0.9C189.6,143.9,190.2,143.8,190.8,143.8z M190.8,145c-0.8,0-1.4,0.2-1.8,0.7
		c-0.4,0.4-0.7,1-0.8,1.8h4.9c0-0.4-0.1-0.7-0.2-1c-0.1-0.3-0.3-0.6-0.5-0.8c-0.2-0.2-0.4-0.4-0.7-0.5
		C191.5,145,191.2,145,190.8,145z"/>
	<path class="st2" d="M196.2,152.9v-9h0.9c0.2,0,0.4,0.1,0.4,0.3l0.1,0.9c0.3-0.4,0.7-0.7,1.1-1c0.4-0.3,0.9-0.4,1.4-0.4
		c0.6,0,1.1,0.2,1.5,0.5c0.4,0.3,0.6,0.8,0.8,1.4c0.1-0.3,0.3-0.6,0.5-0.8c0.2-0.2,0.4-0.4,0.7-0.6c0.3-0.2,0.5-0.3,0.8-0.3
		c0.3-0.1,0.6-0.1,0.9-0.1c0.5,0,0.9,0.1,1.3,0.2s0.7,0.4,0.9,0.7c0.3,0.3,0.5,0.6,0.6,1.1c0.1,0.4,0.2,0.9,0.2,1.4v5.7h-1.6v-5.7
		c0-0.7-0.2-1.2-0.5-1.6c-0.3-0.4-0.7-0.5-1.3-0.5c-0.3,0-0.5,0-0.7,0.1c-0.2,0.1-0.4,0.2-0.6,0.4c-0.2,0.2-0.3,0.4-0.4,0.7
		s-0.2,0.6-0.2,0.9v5.7h-1.6v-5.7c0-0.7-0.1-1.3-0.4-1.6c-0.3-0.4-0.7-0.5-1.3-0.5c-0.4,0-0.7,0.1-1.1,0.3c-0.3,0.2-0.6,0.5-0.9,0.9
		v6.7H196.2z"/>
</g>
<g>
	<g>
		<path class="st3" d="M132.7,0h-13.4h-18.7H78.3c-4.9,0-8.9,4-8.9,8.9v54.4c0,4.5,3.5,8.4,8.1,8.8c0.1,0,0.2,0,0.4,0c0,0,0,0,0,0
			c0.5,0,1.1,0,1.2,0h14.1h32.8h6.6c4.9,0,8.9-4,8.9-8.9v-7.9V8.9C141.6,4,137.6,0,132.7,0z"/>
	</g>
	<g>
		<path class="st4" d="M78.3,4.2c-2.6,0-4.7,2.1-4.7,4.7v54.4c0,2.5,1.9,4.5,4.3,4.7l22.8-63.8H78.3z"/>
	</g>
	<g>
		<path class="st2" d="M137.5,8.9c0-2.6-2.1-4.7-4.7-4.7h-13.4l18.1,51.2V8.9z"/>
	</g>
	<polygon class="st4" points="122.7,57.6 96.7,57.6 93.2,68 126.1,68 	"/>
	<polygon class="st4" points="109.9,17.6 100.7,45.4 118.8,45.4 	"/>
	<path class="st3" d="M73.6,63.4c0,0.1,0,0.1,0,0.2C73.6,63.5,73.6,63.5,73.6,63.4z"/>
</g>
</svg>
